<svg xmlns="http://www.w3.org/2000/svg" viewBox="0 0 512 512"><path d="m 192,432 c -9.04691,-0.26312 -16.96481,8.35164 -15.94346,17.34385 0.49908,8.55877 8.75711,15.44593 17.24881,14.65615 42.67898,-0.0377 85.36212,0.0754 128.0385,-0.0565 9.0374,-0.49741 16.20287,-9.74737 14.43041,-18.62166 C 334.59347,437.18575 326.4772,431.17297 318.36831,432 276.24554,432 234.12277,432 192,432 Z"/><path d="m 128,192 c -9.71653,-0.30133 -17.43625,9.3481 -16,18.76906 0.0521,25.24594 -1.44028,51.15652 7.60568,75.26048 17.65375,53.49942 69.04676,93.8384 125.36622,97.54805 53.65178,4.77596 108.03726,-24.10517 134.98369,-70.57722 15.32695,-25.12266 21.30459,-54.89283 20.04441,-84.07662 -0.50964,-8.59556 1.03642,-17.43184 -0.78893,-25.88593 -2.95089,-10.47293 -17.36579,-14.63238 -25.44174,-7.33958 -6.61103,5.00968 -6.03252,13.94184 -5.76933,21.30122 0.0832,21.53954 1.07053,43.76839 -7.7918,63.99263 -16.81378,44.35262 -64.10336,74.47038 -111.38121,70.77985 -49.06419,-2.43109 -93.34691,-40.97825 -102.54404,-89.25262 -4.18053,-19.14467 -1.125,-38.86216 -2.70885,-58.18638 C 141.99747,197.23121 135.27857,191.90733 128,192 Z"/><path d="m 256,352 c -8.33863,-0.20355 -15.8915,7.08103 -15.98954,15.42156 -0.003,27.19516 -0.0459,54.39257 0.0214,81.58685 0.32288,8.30063 8.00619,15.3634 16.30452,14.98805 8.34107,0.0282 15.73914,-7.41351 15.66184,-15.75426 -0.0169,-27.08331 0.043,-54.16837 -0.03,-81.25061 C 271.57908,358.7389 264.26582,351.86871 256,352 Z"/><path d="M256,320a78.83,78.83,0,0,1-56.55-24.1A80.89,80.89,0,0,1,176,239V128a79.69,79.69,0,0,1,80-80c44.86,0,80,35.14,80,80V239C336,283.66,300.11,320,256,320Z"/></svg>
