<?xml version="1.0" encoding="UTF-8" standalone="no"?>
<svg xmlns="http://www.w3.org/2000/svg" viewBox="0 0 512 512"><path transform="translate(-15.261818,0.2930713)" d="M 64.121094,64 C 51.844661,63.312307 43.387662,78.841851 50.62382,88.781664 84.080226,123.35194 118.64848,156.95241 152.52619,191.1551 c 84.68587,84.52228 169.06077,169.38747 253.94043,253.69608 9.50959,7.79411 25.4981,0.23893 25.51512,-12.05664 0.5506,-11.87902 -12.05061,-17.81974 -18.49138,-25.93308 C 300.13235,293.66694 187.08523,180.12961 73.533246,67.148985 70.833282,65.137595 67.487929,64.018334 64.121094,64 Z"/><path d="m 295.91602,393.98047 c -87,-87 -174,-174 -261.000004,-261 C 19.457521,148.41931 14.244256,171.06115 16,192.30181 c 0.30174,49.0984 -0.59622,98.24246 0.435179,147.31332 3.089394,33.87617 34.810815,61.6956 68.795002,60.38487 63.227359,-0.24628 126.488529,0.48875 189.695219,-0.36046 7.24002,-0.746 14.35676,-2.66467 20.99062,-5.65907 z"/><path d="M 144.73828,112 C 208.49219,175.07292 272.24609,238.14583 336,301.21875 335.69814,258.12891 336.59695,214.99301 335.56362,171.93091 332.47767,138.30456 300.98556,110.70084 267.25029,112 c -40.83734,0 -81.67467,0 -122.51201,0 z"/><path d="m 464,384.39 c -16.15579,0.32288 -26.89942,-13.91894 -39.85291,-21.30432 -20.91557,-15.28997 -42.9746,-29.16474 -63.24945,-45.25023 -12.59165,-12.27458 -8.20173,-31.1305 -8.89764,-46.73907 0.54466,-20.44527 -1.04117,-41.04592 0.69188,-61.40782 3.16316,-17.53708 21.55977,-24.56226 34.01316,-34.41859 21.83798,-14.89183 42.89753,-31.10947 65.1699,-45.26348 18.42695,-8.33023 41.93159,5.30255 43.85085,25.43366 0.52776,66.72835 0.3208,133.52529 0.10113,200.26362 C 494.42046,371.67653 480.00781,384.62562 464,384.39 Z"/></svg>
